# xmcd
# 
# Track frame offsets:
#     150
#     18269
#     37975
#     64849
#     104862
#     134571
#     159133
#     190918
# 
# Disc length: 2978
# 
# Revision: 0
# Processed by: cddbd v1.5.2PL0 Copyright (c) Steve Scherf et al.
# Submitted via: fre:ac v1.0.17
# 
DISCID=680ba008
DTITLE=The Turning Point - Lift: Live at The Ebell Theatre 2
DYEAR=2010
DGENRE=Christian Rock
TTITLE0=Te Amo
TTITLE1=For Who You Are
TTITLE2=From The Inside Out
TTITLE3=Came To My Rescue
TTITLE4=I Will Search
TTITLE5=Lord of Lords
TTITLE6=The Stand
TTITLE7=Better Is One Day
EXTD=
EXTT0=
EXTT1=
EXTT2=
EXTT3=
EXTT4=
EXTT5=
EXTT6=
EXTT7=
PLAYORDER=
